<?xml version="1.0" standalone="no"?>
<!DOCTYPE svg PUBLIC "-//W3C//DTD SVG 20010904//EN"
 "http://www.w3.org/TR/2001/REC-SVG-20010904/DTD/svg10.dtd">
<svg version="1.0" xmlns="http://www.w3.org/2000/svg"
 width="256.000000pt" height="113.000000pt" viewBox="0 0 256.000000 113.000000"
 preserveAspectRatio="xMidYMid meet">

<g transform="translate(0.000000,113.000000) scale(0.100000,-0.100000)"
fill="#fff" stroke="none">
<path d="M2130 1010 c0 -53 4 -90 10 -90 6 0 10 18 10 40 l0 40 50 0 50 0 0
-40 c0 -22 5 -40 10 -40 6 0 10 37 10 90 0 53 -4 90 -10 90 -5 0 -10 -18 -10
-40 l0 -40 -50 0 -50 0 0 40 c0 22 -4 40 -10 40 -6 0 -10 -37 -10 -90z"/>
<path d="M2130 790 c0 -53 4 -90 10 -90 6 0 10 31 10 73 l0 72 48 -72 c26 -40
53 -73 60 -73 9 0 12 25 12 90 0 53 -4 90 -10 90 -6 0 -10 -31 -10 -72 l0 -71
-50 71 c-28 40 -55 72 -60 72 -6 0 -10 -38 -10 -90z"/>
<path d="M199 801 c-20 -16 -24 -29 -24 -71 0 -42 4 -55 24 -71 25 -20 71 -25
100 -9 46 24 51 125 8 155 -30 21 -80 19 -108 -4z m101 -21 c41 -41 12 -120
-45 -120 -14 0 -34 9 -45 20 -41 41 -12 120 45 120 14 0 34 -9 45 -20z"/>
<path d="M760 719 l-156 -89 -104 35 c-108 36 -131 42 -114 26 5 -5 55 -24
112 -42 l102 -33 -2 -180 -3 -180 -107 -35 c-60 -19 -108 -38 -108 -42 0 -4
35 3 78 17 42 13 93 29 113 35 34 11 41 8 196 -80 l160 -92 161 93 162 92 0
186 0 186 156 89 157 89 63 -34 c34 -18 104 -58 156 -89 l93 -56 5 -185 6
-185 2 187 c2 183 3 188 25 199 70 37 158 92 153 96 -2 3 -45 -18 -94 -46
l-89 -51 -149 86 c-82 48 -154 88 -161 91 -6 2 -80 -35 -164 -83 -83 -48 -157
-87 -164 -87 -7 0 -80 39 -162 86 -82 48 -154 87 -159 86 -5 0 -79 -40 -164
-90z m327 -16 l153 -87 0 -180 0 -181 -154 -87 c-84 -49 -157 -88 -162 -88 -5
1 -76 40 -159 88 l-150 87 -3 180 -2 180 152 87 c84 49 157 88 163 88 5 0 78
-39 162 -87z"/>
<path d="M920 726 c0 -7 252 -147 257 -142 6 5 -11 16 -140 90 -89 51 -117 63
-117 52z"/>
<path d="M660 435 c0 -90 4 -145 10 -145 6 0 10 55 10 145 0 90 -4 145 -10
145 -6 0 -10 -55 -10 -145z"/>
<path d="M1135 276 c-11 -8 -64 -39 -118 -71 -54 -31 -96 -59 -93 -62 5 -5
256 135 256 143 0 8 -26 2 -45 -10z"/>
<path d="M2344 721 c9 -14 169 -102 179 -98 9 3 -165 107 -179 107 -3 0 -3 -4
0 -9z"/>
<path d="M96 529 c-40 -53 -64 -95 -59 -102 29 -48 137 -187 141 -182 3 3 -9
24 -26 48 -17 23 -48 66 -68 94 l-36 53 56 75 c54 72 74 105 63 105 -3 0 -35
-41 -71 -91z"/>
<path d="M199 201 c-20 -16 -24 -29 -24 -71 0 -42 4 -55 24 -71 25 -20 71 -25
100 -9 46 24 51 125 8 155 -30 21 -80 19 -108 -4z m101 -21 c41 -41 12 -120
-45 -120 -14 0 -34 9 -45 20 -41 41 -12 120 45 120 14 0 34 -9 45 -20z"/>
</g>
</svg>
